Barlow-Light Condensed.ufo
<glyph name="zero" format="1">
  <advance width="392"/>
  <unicode hex="0030"/>
  <outline>
    <contour>
      <point x="286" y="-9"/>
      <point x="348" y="56"/>
      <point x="348" y="154" type="curve" smooth="yes"/>
      <point x="348" y="546" type="line" smooth="yes"/>
      <point x="348" y="644"/>
      <point x="286" y="709"/>
      <point x="195" y="709" type="curve" smooth="yes"/>
      <point x="104" y="709"/>
      <point x="44" y="644"/>
      <point x="44" y="546" type="curve" smooth="yes"/>
      <point x="44" y="154" type="line" smooth="yes"/>
      <point x="44" y="56"/>
      <point x="104" y="-9"/>
      <point x="195" y="-9" type="curve" smooth="yes"/>
    </contour>
    <contour>
      <point x="118" y="12"/>
      <point x="66" y="68"/>
      <point x="66" y="152" type="curve" smooth="yes"/>
      <point x="66" y="548" type="line" smooth="yes"/>
      <point x="66" y="632"/>
      <point x="118" y="688"/>
      <point x="195" y="688" type="curve" smooth="yes"/>
      <point x="274" y="688"/>
      <point x="326" y="632"/>
      <point x="326" y="548" type="curve" smooth="yes"/>
      <point x="326" y="152" type="line" smooth="yes"/>
      <point x="326" y="68"/>
      <point x="274" y="12"/>
      <point x="195" y="12" type="curve" smooth="yes"/>
    </contour>
  </outline>
</glyph>
<glyph name="one" format="1">
  <advance width="278"/>
  <unicode hex="0031"/>
  <outline>
    <contour>
      <point x="208" y="0" type="line"/>
      <point x="208" y="700" type="line"/>
      <point x="186" y="700" type="line"/>
      <point x="186" y="0" type="line"/>
    </contour>
    <contour>
      <point x="186" y="669" type="line"/>
      <point x="186" y="700" type="line"/>
      <point x="77" y="628" type="line"/>
      <point x="77" y="607" type="line"/>
    </contour>
  </outline>
</glyph>
<glyph name="D" format="1">
  <advance width="458"/>
  <unicode hex="0044"/>
  <outline>
    <contour>
      <point x="235" y="0" type="line" smooth="yes"/>
      <point x="325" y="0"/>
      <point x="381" y="68"/>
      <point x="381" y="180" type="curve" smooth="yes"/>
      <point x="381" y="520" type="line" smooth="yes"/>
      <point x="381" y="632"/>
      <point x="325" y="700"/>
      <point x="235" y="700" type="curve" smooth="yes"/>
      <point x="91" y="700" type="line"/>
      <point x="91" y="0" type="line"/>
    </contour>
    <contour>
      <point x="113" y="679" type="line"/>
      <point x="236" y="679" type="line" smooth="yes"/>
      <point x="312" y="679"/>
      <point x="358" y="619"/>
      <point x="358" y="520" type="curve" smooth="yes"/>
      <point x="358" y="179" type="line" smooth="yes"/>
      <point x="358" y="81"/>
      <point x="311" y="21"/>
      <point x="236" y="21" type="curve" smooth="yes"/>
      <point x="113" y="21" type="line"/>
    </contour>
    <contour>
      <point x="228" y="705" type="move" name="top"/>
    </contour>
  </outline>
</glyph>
<glyph name="underscore" format="1">
  <advance width="345"/>
  <unicode hex="005F"/>
  <outline>
    <contour>
      <point x="317" y="0" type="line"/>
      <point x="317" y="22" type="line"/>
      <point x="28" y="22" type="line"/>
      <point x="28" y="0" type="line"/>
    </contour>
  </outline>
</glyph>
<glyph name="c" format="1">
  <advance width="380"/>
  <unicode hex="0063"/>
  <outline>
    <contour>
      <point x="277" y="-8"/>
      <point x="332" y="52"/>
      <point x="332" y="115" type="curve" smooth="yes"/>
      <point x="332" y="117"/>
      <point x="332" y="125"/>
      <point x="332" y="127" type="curve"/>
      <point x="310" y="127" type="line"/>
      <point x="310" y="125"/>
      <point x="310" y="117"/>
      <point x="310" y="115" type="curve" smooth="yes"/>
      <point x="310" y="63"/>
      <point x="264" y="13"/>
      <point x="197" y="13" type="curve" smooth="yes"/>
      <point x="131" y="13"/>
      <point x="85" y="63"/>
      <point x="85" y="135" type="curve" smooth="yes"/>
      <point x="85" y="173"/>
      <point x="85" y="212"/>
      <point x="85" y="250" type="curve" smooth="yes"/>
      <point x="85" y="288"/>
      <point x="85" y="327"/>
      <point x="85" y="365" type="curve" smooth="yes"/>
      <point x="85" y="437"/>
      <point x="131" y="487"/>
      <point x="197" y="487" type="curve" smooth="yes"/>
      <point x="264" y="487"/>
      <point x="310" y="437"/>
      <point x="310" y="385" type="curve" smooth="yes"/>
      <point x="310" y="383"/>
      <point x="310" y="375"/>
      <point x="310" y="373" type="curve"/>
      <point x="332" y="373" type="line"/>
      <point x="332" y="374"/>
      <point x="332" y="384"/>
      <point x="332" y="385" type="curve" smooth="yes"/>
      <point x="332" y="448"/>
      <point x="277" y="508"/>
      <point x="197" y="508" type="curve" smooth="yes"/>
      <point x="118" y="508"/>
      <point x="63" y="448"/>
      <point x="63" y="365" type="curve" smooth="yes"/>
      <point x="63" y="327"/>
      <point x="63" y="288"/>
      <point x="63" y="250" type="curve" smooth="yes"/>
      <point x="63" y="212"/>
      <point x="63" y="173"/>
      <point x="63" y="135" type="curve" smooth="yes"/>
      <point x="63" y="52"/>
      <point x="118" y="-8"/>
      <point x="197" y="-8" type="curve" smooth="yes"/>
    </contour>
    <contour>
      <point x="197" y="508" type="move" name="top"/>
    </contour>
    <contour>
      <point x="197" y="-8" type="move" name="bottom"/>
    </contour>
  </outline>
</glyph>
<glyph name="v" format="1">
  <advance width="339"/>
  <unicode hex="0076"/>
  <outline>
    <contour>
      <point x="182" y="0" type="line"/>
      <point x="311" y="500" type="line"/>
      <point x="286" y="500" type="line"/>
      <point x="170" y="33" type="line"/>
      <point x="53" y="500" type="line"/>
      <point x="28" y="500" type="line"/>
      <point x="159" y="0" type="line"/>
    </contour>
  </outline>
</glyph>
<glyph name="currency" format="1">
  <advance width="472"/>
  <unicode hex="00A4"/>
  <outline>
    <contour>
      <point x="333" y="118"/>
      <point x="416" y="199"/>
      <point x="416" y="300" type="curve"/>
      <point x="416" y="401"/>
      <point x="333" y="483"/>
      <point x="232" y="483" type="curve" smooth="yes"/>
      <point x="132" y="483"/>
      <point x="48" y="401"/>
      <point x="48" y="300" type="curve" smooth="yes"/>
      <point x="48" y="200"/>
      <point x="131" y="118"/>
      <point x="232" y="118" type="curve" smooth="yes"/>
    </contour>
    <contour>
      <point x="123" y="169" type="line"/>
      <point x="107" y="183" type="line"/>
      <point x="28" y="105" type="line"/>
      <point x="44" y="91" type="line"/>
    </contour>
    <contour>
      <point x="118" y="429" type="line"/>
      <point x="37" y="510" type="line"/>
      <point x="21" y="496" type="line"/>
      <point x="103" y="414" type="line"/>
    </contour>
    <contour>
      <point x="143" y="139"/>
      <point x="70" y="211"/>
      <point x="70" y="300" type="curve" smooth="yes"/>
      <point x="70" y="390"/>
      <point x="143" y="462"/>
      <point x="232" y="462" type="curve" smooth="yes"/>
      <point x="321" y="462"/>
      <point x="394" y="389"/>
      <point x="394" y="300" type="curve" smooth="yes"/>
      <point x="394" y="210"/>
      <point x="322" y="139"/>
      <point x="232" y="139" type="curve" smooth="yes"/>
    </contour>
    <contour>
      <point x="444" y="105" type="line"/>
      <point x="363" y="186" type="line"/>
      <point x="347" y="171" type="line"/>
      <point x="428" y="91" type="line"/>
    </contour>
    <contour>
      <point x="451" y="496" type="line"/>
      <point x="435" y="510" type="line"/>
      <point x="349" y="424" type="line"/>
      <point x="364" y="410" type="line"/>
    </contour>
  </outline>
</glyph>
<glyph name="brokenbar" format="1">
  <advance width="114"/>
  <unicode hex="00A6"/>
  <outline>
    <contour>
      <point x="68" y="385" type="line"/>
      <point x="68" y="760" type="line"/>
      <point x="46" y="760" type="line"/>
      <point x="46" y="385" type="line"/>
    </contour>
    <contour>
      <point x="68" y="-80" type="line"/>
      <point x="68" y="285" type="line"/>
      <point x="46" y="285" type="line"/>
      <point x="46" y="-80" type="line"/>
    </contour>
  </outline>
</glyph>
<glyph name="lslash" format="1">
  <advance width="162"/>
  <unicode hex="0142"/>
  <outline>
    <contour>
      <point x="186" y="379" type="line"/>
      <point x="174" y="398" type="line"/>
      <point x="3" y="291" type="line"/>
      <point x="15" y="273" type="line"/>
    </contour>
    <component base="l"/>
  </outline>
</glyph>
<glyph name="OE" format="1">
  <advance width="684"/>
  <unicode hex="0152"/>
  <outline>
    <contour>
      <point x="311" y="-8"/>
      <point x="372" y="56"/>
      <point x="372" y="150" type="curve" smooth="yes"/>
      <point x="372" y="549" type="line" smooth="yes"/>
      <point x="372" y="643"/>
      <point x="311" y="708"/>
      <point x="221" y="708" type="curve" smooth="yes"/>
      <point x="132" y="708"/>
      <point x="70" y="643"/>
      <point x="70" y="549" type="curve" smooth="yes"/>
      <point x="70" y="150" type="line" smooth="yes"/>
      <point x="70" y="56"/>
      <point x="132" y="-8"/>
      <point x="221" y="-8" type="curve" smooth="yes"/>
    </contour>
    <contour>
      <point x="145" y="13"/>
      <point x="92" y="69"/>
      <point x="92" y="149" type="curve" smooth="yes"/>
      <point x="92" y="550" type="line" smooth="yes"/>
      <point x="92" y="631"/>
      <point x="145" y="687"/>
      <point x="221" y="687" type="curve" smooth="yes"/>
      <point x="298" y="687"/>
      <point x="352" y="631"/>
      <point x="352" y="550" type="curve" smooth="yes"/>
      <point x="352" y="149" type="line" smooth="yes"/>
      <point x="352" y="69"/>
      <point x="298" y="13"/>
      <point x="221" y="13" type="curve" smooth="yes"/>
    </contour>
    <contour>
      <point x="551" y="340" type="line"/>
      <point x="551" y="361" type="line"/>
      <point x="363" y="361" type="line"/>
      <point x="363" y="340" type="line"/>
    </contour>
    <contour>
      <point x="634" y="0" type="line"/>
      <point x="634" y="21" type="line"/>
      <point x="374" y="21" type="line"/>
      <point x="374" y="679" type="line"/>
      <point x="634" y="679" type="line"/>
      <point x="634" y="700" type="line"/>
      <point x="352" y="700" type="line"/>
      <point x="352" y="0" type="line"/>
    </contour>
    <contour>
      <point x="370" y="700" type="move" name="top"/>
    </contour>
  </outline>
</glyph>
<glyph name="dotaccentcomb" format="1">
  <advance width="52"/>
  <unicode hex="0307"/>
  <outline>
    <contour>
      <point x="41" y="592"/>
      <point x="52" y="605"/>
      <point x="52" y="622" type="curve" smooth="yes"/>
      <point x="52" y="638"/>
      <point x="41" y="651"/>
      <point x="27" y="651" type="curve" smooth="yes"/>
      <point x="12" y="651"/>
      <point x="0" y="638"/>
      <point x="0" y="622" type="curve" smooth="yes"/>
      <point x="0" y="605"/>
      <point x="12" y="592"/>
      <point x="27" y="592" type="curve" smooth="yes"/>
    </contour>
    <contour>
      <point x="27" y="500" type="move" name="_top"/>
    </contour>
  </outline>
</glyph>
<glyph name="dieresiscomb" format="1">
  <advance width="157"/>
  <unicode hex="0308"/>
  <outline>
    <contour>
      <point x="146" y="612"/>
      <point x="157" y="625"/>
      <point x="157" y="642" type="curve" smooth="yes"/>
      <point x="157" y="658"/>
      <point x="146" y="671"/>
      <point x="132" y="671" type="curve" smooth="yes"/>
      <point x="117" y="671"/>
      <point x="105" y="658"/>
      <point x="105" y="642" type="curve" smooth="yes"/>
      <point x="105" y="625"/>
      <point x="117" y="612"/>
      <point x="132" y="612" type="curve" smooth="yes"/>
    </contour>
    <contour>
      <point x="41" y="612"/>
      <point x="52" y="625"/>
      <point x="52" y="642" type="curve" smooth="yes"/>
      <point x="52" y="658"/>
      <point x="41" y="671"/>
      <point x="27" y="671" type="curve" smooth="yes"/>
      <point x="12" y="671"/>
      <point x="0" y="658"/>
      <point x="0" y="642" type="curve" smooth="yes"/>
      <point x="0" y="625"/>
      <point x="12" y="612"/>
      <point x="27" y="612" type="curve" smooth="yes"/>
    </contour>
    <contour>
      <point x="79" y="500" type="move" name="_top"/>
    </contour>
  </outline>
</glyph>
<glyph name="strokeshortcomb" format="1">
  <advance width="253"/>
  <unicode hex="0335"/>
  <outline>
    <contour>
      <point x="0" y="576" type="line"/>
      <point x="253" y="576" type="line"/>
      <point x="253" y="597" type="line"/>
      <point x="0" y="597" type="line"/>
    </contour>
    <contour>
      <point x="127" y="576" type="move" name="_shortstroke"/>
    </contour>
  </outline>
</glyph>
<glyph name="Delta" format="1">
  <advance width="534"/>
  <unicode hex="0394"/>
  <outline>
    <contour>
      <point x="492" y="0" type="line"/>
      <point x="492" y="20" type="line"/>
      <point x="278" y="700" type="line"/>
      <point x="256" y="700" type="line"/>
      <point x="42" y="21" type="line"/>
      <point x="42" y="0" type="line"/>
    </contour>
    <contour>
      <point x="267" y="673" type="line"/>
      <point x="470" y="20" type="line"/>
      <point x="64" y="20" type="line"/>
    </contour>
  </outline>
</glyph>
<glyph name="dagger" format="1">
  <advance width="316"/>
  <unicode hex="2020"/>
  <outline>
    <contour>
      <point x="169" y="-200" type="line"/>
      <point x="169" y="700" type="line"/>
      <point x="147" y="700" type="line"/>
      <point x="147" y="-200" type="line"/>
    </contour>
    <contour>
      <point x="278" y="439" type="line"/>
      <point x="278" y="460" type="line"/>
      <point x="38" y="460" type="line"/>
      <point x="38" y="439" type="line"/>
    </contour>
  </outline>
</glyph>
<glyph name="estimated" format="1">
  <advance width="865"/>
  <unicode hex="212E"/>
  <outline>
    <contour>
      <point x="734" y="189" type="line"/>
      <point x="679" y="83"/>
      <point x="569" y="13"/>
      <point x="432" y="13" type="curve" smooth="yes"/>
      <point x="234" y="13"/>
      <point x="92" y="158"/>
      <point x="92" y="347" type="curve" smooth="yes"/>
      <point x="92" y="542"/>
      <point x="234" y="687"/>
      <point x="432" y="687" type="curve" smooth="yes"/>
      <point x="630" y="687"/>
      <point x="772" y="542"/>
      <point x="772" y="347" type="curve" smooth="yes"/>
      <point x="772" y="345"/>
      <point x="772" y="344"/>
      <point x="772" y="343" type="curve"/>
      <point x="795" y="343" type="line"/>
      <point x="795" y="344"/>
      <point x="795" y="345"/>
      <point x="795" y="347" type="curve" smooth="yes"/>
      <point x="795" y="554"/>
      <point x="643" y="708"/>
      <point x="432" y="708" type="curve" smooth="yes"/>
      <point x="222" y="708"/>
      <point x="70" y="554"/>
      <point x="70" y="347" type="curve" smooth="yes"/>
      <point x="70" y="146"/>
      <point x="222" y="-8"/>
      <point x="432" y="-8" type="curve" smooth="yes"/>
      <point x="583" y="-8"/>
      <point x="703" y="70"/>
      <point x="760" y="189" type="curve"/>
    </contour>
    <contour>
      <point x="81" y="343" type="line"/>
      <point x="782" y="343" type="line"/>
      <point x="782" y="364" type="line"/>
      <point x="81" y="364" type="line"/>
    </contour>
    <contour>
      <point x="129" y="524"/>
      <point x="80" y="448"/>
      <point x="80" y="353" type="curve" smooth="yes"/>
      <point x="80" y="267"/>
      <point x="117" y="154"/>
      <point x="142" y="141" type="curve"/>
      <point x="143" y="544" type="line"/>
    </contour>
    <contour>
      <point x="784" y="420"/>
      <point x="759" y="492"/>
      <point x="721" y="546" type="curve"/>
      <point x="721" y="352" type="line"/>
      <point x="784" y="352" type="line"/>
    </contour>
  </outline>
</glyph>
<glyph name="product" format="1">
  <advance width="467"/>
  <unicode hex="220F"/>
  <outline>
    <contour>
      <point x="376" y="-200" type="line"/>
      <point x="376" y="800" type="line"/>
      <point x="354" y="800" type="line"/>
      <point x="354" y="-200" type="line"/>
    </contour>
    <contour>
      <point x="113" y="-200" type="line"/>
      <point x="113" y="800" type="line"/>
      <point x="91" y="800" type="line"/>
      <point x="91" y="-200" type="line"/>
    </contour>
    <contour>
      <point x="376" y="779" type="line"/>
      <point x="376" y="800" type="line"/>
      <point x="91" y="800" type="line"/>
      <point x="91" y="779" type="line"/>
    </contour>
  </outline>
</glyph>
<glyph name="notequal" format="1">
  <advance width="444"/>
  <unicode hex="2260"/>
  <outline>
    <contour>
      <point x="111" y="119" type="line"/>
      <point x="333" y="563" type="line"/>
      <point x="311" y="563" type="line"/>
      <point x="89" y="119" type="line"/>
    </contour>
    <component base="equal"/>
  </outline>
</glyph>
<glyph name="a.sc" format="1">
  <advance width="366"/>
  <outline>
    <contour>
      <point x="58" y="0" type="line"/>
      <point x="182" y="539" type="line"/>
      <point x="307" y="0" type="line"/>
      <point x="330" y="0" type="line"/>
      <point x="193" y="576" type="line"/>
      <point x="170" y="576" type="line"/>
      <point x="36" y="0" type="line"/>
    </contour>
    <contour>
      <point x="290" y="126" type="line"/>
      <point x="290" y="147" type="line"/>
      <point x="78" y="147" type="line"/>
      <point x="78" y="126" type="line"/>
    </contour>
    <contour>
      <point x="182" y="576" type="move" name="top"/>
    </contour>
  </outline>
</glyph>
<glyph name="ae.sc" format="1">
  <advance width="595"/>
  <outline>
    <contour>
      <point x="58" y="0" type="line"/>
      <point x="309" y="538" type="line"/>
      <point x="308" y="0" type="line"/>
      <point x="553" y="0" type="line"/>
      <point x="553" y="21" type="line"/>
      <point x="331" y="21" type="line"/>
      <point x="331" y="555" type="line"/>
      <point x="553" y="555" type="line"/>
      <point x="553" y="576" type="line"/>
      <point x="306" y="576" type="line"/>
      <point x="36" y="0" type="line"/>
    </contour>
    <contour>
      <point x="320" y="126" type="line"/>
      <point x="324" y="147" type="line"/>
      <point x="114" y="147" type="line"/>
      <point x="109" y="126" type="line"/>
    </contour>
    <contour>
      <point x="481" y="278" type="line"/>
      <point x="481" y="299" type="line"/>
      <point x="320" y="299" type="line"/>
      <point x="320" y="278" type="line"/>
    </contour>
  </outline>
</glyph>
<glyph name="c.sc" format="1">
  <advance width="373"/>
  <outline>
    <contour>
      <point x="268" y="-7"/>
      <point x="320" y="45"/>
      <point x="320" y="133" type="curve" smooth="yes"/>
      <point x="320" y="156" type="line"/>
      <point x="297" y="157" type="line"/>
      <point x="297" y="132" type="line" smooth="yes"/>
      <point x="297" y="58"/>
      <point x="254" y="14"/>
      <point x="189" y="14" type="curve" smooth="yes"/>
      <point x="125" y="14"/>
      <point x="82" y="58"/>
      <point x="82" y="132" type="curve" smooth="yes"/>
      <point x="82" y="445" type="line" smooth="yes"/>
      <point x="82" y="519"/>
      <point x="125" y="562"/>
      <point x="189" y="562" type="curve" smooth="yes"/>
      <point x="254" y="562"/>
      <point x="297" y="519"/>
      <point x="297" y="445" type="curve" smooth="yes"/>
      <point x="297" y="418" type="line"/>
      <point x="320" y="419" type="line"/>
      <point x="320" y="443" type="line" smooth="yes"/>
      <point x="320" y="532"/>
      <point x="268" y="583"/>
      <point x="189" y="583" type="curve" smooth="yes"/>
      <point x="112" y="583"/>
      <point x="60" y="532"/>
      <point x="60" y="443" type="curve" smooth="yes"/>
      <point x="60" y="133" type="line" smooth="yes"/>
      <point x="60" y="45"/>
      <point x="112" y="-7"/>
      <point x="189" y="-7" type="curve" smooth="yes"/>
    </contour>
    <contour>
      <point x="189" y="583" type="move" name="top"/>
    </contour>
    <contour>
      <point x="189" y="-7" type="move" name="bottom"/>
    </contour>
  </outline>
</glyph>
<glyph name="cedillacomb.alt" format="1">
  <advance width="165"/>
  <outline>
    <contour>
      <point x="126" y="-177"/>
      <point x="163" y="-150"/>
      <point x="165" y="-105" type="curve" smooth="yes"/>
      <point x="167" y="-64"/>
      <point x="140" y="-29"/>
      <point x="96" y="-29" type="curve" smooth="yes"/>
      <point x="77" y="-29"/>
      <point x="59" y="-36"/>
      <point x="48" y="-44" type="curve"/>
      <point x="67" y="2" type="line"/>
      <point x="50" y="12" type="line"/>
      <point x="20" y="-57" type="line"/>
      <point x="36" y="-73" type="line"/>
      <point x="51" y="-59"/>
      <point x="72" y="-50"/>
      <point x="92" y="-50" type="curve" smooth="yes"/>
      <point x="126" y="-50"/>
      <point x="144" y="-77"/>
      <point x="143" y="-105" type="curve" smooth="yes"/>
      <point x="142" y="-139"/>
      <point x="114" y="-156"/>
      <point x="83" y="-156" type="curve" smooth="yes"/>
      <point x="54" y="-156"/>
      <point x="30" y="-142"/>
      <point x="18" y="-122" type="curve"/>
      <point x="0" y="-130" type="line"/>
      <point x="16" y="-158"/>
      <point x="48" y="-177"/>
      <point x="84" y="-177" type="curve" smooth="yes"/>
    </contour>
    <contour>
      <point x="67" y="-2" type="move" name="_bottom"/>
    </contour>
  </outline>
</glyph>
<glyph name="eng.sc" format="1">
  <advance width="411"/>
  <outline>
    <contour>
      <point x="334" y="-112"/>
      <point x="335" y="-68"/>
      <point x="335" y="4" type="curve" smooth="yes"/>
      <point x="335" y="466" type="line"/>
      <point x="312" y="466" type="line"/>
      <point x="312" y="4" type="line" smooth="yes"/>
      <point x="312" y="-55"/>
      <point x="318" y="-91"/>
      <point x="254" y="-91" type="curve"/>
      <point x="254" y="-112" type="line"/>
    </contour>
    <component base="n.sc"/>
  </outline>
</glyph>
<glyph name="f.sc" format="1">
  <advance width="336"/>
  <outline>
    <contour>
      <point x="98" y="0" type="line"/>
      <point x="98" y="555" type="line"/>
      <point x="318" y="555" type="line"/>
      <point x="318" y="576" type="line"/>
      <point x="76" y="576" type="line"/>
      <point x="76" y="0" type="line"/>
    </contour>
    <contour>
      <point x="248" y="278" type="line"/>
      <point x="248" y="299" type="line"/>
      <point x="87" y="299" type="line"/>
      <point x="87" y="278" type="line"/>
    </contour>
  </outline>
</glyph>
<glyph name="g_j.liga" format="1">
  <advance width="569"/>
  <outline>
    <contour>
      <point x="453" y="-211"/>
      <point x="492" y="-159"/>
      <point x="492" y="-74" type="curve" smooth="yes"/>
      <point x="492" y="500" type="line"/>
      <point x="470" y="500" type="line"/>
      <point x="470" y="-74" type="line" smooth="yes"/>
      <point x="470" y="-146"/>
      <point x="438" y="-190"/>
      <point x="382" y="-190" type="curve"/>
      <point x="382" y="-211" type="line"/>
    </contour>
    <contour>
      <point x="497" y="620"/>
      <point x="508" y="631"/>
      <point x="508" y="650" type="curve" smooth="yes"/>
      <point x="508" y="669"/>
      <point x="497" y="679"/>
      <point x="481" y="679" type="curve" smooth="yes"/>
      <point x="466" y="679"/>
      <point x="455" y="669"/>
      <point x="455" y="650" type="curve" smooth="yes"/>
      <point x="455" y="631"/>
      <point x="466" y="620"/>
      <point x="481" y="620" type="curve" smooth="yes"/>
    </contour>
    <component base="g"/>
  </outline>
</glyph>
<glyph name="i.sc" format="1">
  <advance width="174"/>
  <outline>
    <contour>
      <point x="98" y="0" type="line"/>
      <point x="98" y="575" type="line"/>
      <point x="76" y="575" type="line"/>
      <point x="76" y="0" type="line"/>
    </contour>
    <contour>
      <point x="87" y="584" type="move" name="top"/>
    </contour>
  </outline>
</glyph>
<glyph name="l.sc" format="1">
  <advance width="321"/>
  <outline>
    <contour>
      <point x="315" y="0" type="line"/>
      <point x="315" y="21" type="line"/>
      <point x="98" y="21" type="line"/>
      <point x="98" y="576" type="line"/>
      <point x="76" y="576" type="line"/>
      <point x="76" y="0" type="line"/>
    </contour>
    <contour>
      <point x="85" y="576" type="move" name="top"/>
    </contour>
    <contour>
      <point x="166" y="0" type="move" name="bottom"/>
    </contour>
  </outline>
</glyph>
<glyph name="n.sc" format="1">
  <advance width="410"/>
  <outline>
    <contour>
      <point x="98" y="0" type="line"/>
      <point x="98" y="524" type="line"/>
      <point x="311" y="0" type="line"/>
      <point x="334" y="0" type="line"/>
      <point x="334" y="575" type="line"/>
      <point x="312" y="575" type="line"/>
      <point x="312" y="51" type="line"/>
      <point x="98" y="575" type="line"/>
      <point x="76" y="575" type="line"/>
      <point x="76" y="0" type="line"/>
    </contour>
    <contour>
      <point x="205" y="584" type="move" name="top"/>
    </contour>
    <contour>
      <point x="202" y="0" type="move" name="bottom"/>
    </contour>
  </outline>
</glyph>
<glyph name="oe.sc" format="1">
  <advance width="586"/>
  <outline>
    <contour>
      <point x="267" y="-7"/>
      <point x="319" y="47"/>
      <point x="319" y="135" type="curve" smooth="yes"/>
      <point x="319" y="440" type="line" smooth="yes"/>
      <point x="319" y="529"/>
      <point x="267" y="583"/>
      <point x="190" y="583" type="curve" smooth="yes"/>
      <point x="113" y="583"/>
      <point x="60" y="529"/>
      <point x="60" y="440" type="curve" smooth="yes"/>
      <point x="60" y="135" type="line" smooth="yes"/>
      <point x="60" y="47"/>
      <point x="113" y="-7"/>
      <point x="190" y="-7" type="curve" smooth="yes"/>
    </contour>
    <contour>
      <point x="127" y="14"/>
      <point x="82" y="59"/>
      <point x="82" y="134" type="curve" smooth="yes"/>
      <point x="82" y="441" type="line" smooth="yes"/>
      <point x="82" y="517"/>
      <point x="127" y="562"/>
      <point x="191" y="562" type="curve" smooth="yes"/>
      <point x="256" y="562"/>
      <point x="300" y="517"/>
      <point x="300" y="441" type="curve" smooth="yes"/>
      <point x="300" y="134" type="line" smooth="yes"/>
      <point x="300" y="59"/>
      <point x="256" y="14"/>
      <point x="191" y="14" type="curve" smooth="yes"/>
    </contour>
    <contour>
      <point x="473" y="278" type="line"/>
      <point x="473" y="299" type="line"/>
      <point x="311" y="299" type="line"/>
      <point x="311" y="278" type="line"/>
    </contour>
    <contour>
      <point x="544" y="0" type="line"/>
      <point x="544" y="21" type="line"/>
      <point x="322" y="21" type="line"/>
      <point x="322" y="555" type="line"/>
      <point x="544" y="555" type="line"/>
      <point x="544" y="576" type="line"/>
      <point x="300" y="576" type="line"/>
      <point x="300" y="0" type="line"/>
    </contour>
    <contour>
      <point x="317" y="576" type="move" name="top"/>
    </contour>
  </outline>
</glyph>
<glyph name="p.sc" format="1">
  <advance width="360"/>
  <outline>
    <contour>
      <point x="92" y="0" type="line"/>
      <point x="92" y="557" type="line"/>
      <point x="198" y="557" type="line" smooth="yes"/>
      <point x="260" y="557"/>
      <point x="302" y="505"/>
      <point x="302" y="427" type="curve" smooth="yes"/>
      <point x="302" y="350"/>
      <point x="260" y="298"/>
      <point x="198" y="298" type="curve" smooth="yes"/>
      <point x="88" y="298" type="line"/>
      <point x="88" y="278" type="line"/>
      <point x="198" y="278" type="line" smooth="yes"/>
      <point x="273" y="278"/>
      <point x="324" y="338"/>
      <point x="324" y="427" type="curve" smooth="yes"/>
      <point x="324" y="517"/>
      <point x="273" y="578"/>
      <point x="198" y="578" type="curve" smooth="yes"/>
      <point x="70" y="578" type="line"/>
      <point x="70" y="0" type="line"/>
    </contour>
  </outline>
</glyph>
<glyph name="r.sc" format="1">
  <advance width="364"/>
  <outline>
    <contour>
      <point x="98" y="0" type="line"/>
      <point x="98" y="557" type="line"/>
      <point x="204" y="557" type="line" smooth="yes"/>
      <point x="266" y="557"/>
      <point x="308" y="505"/>
      <point x="308" y="428" type="curve" smooth="yes"/>
      <point x="308" y="352"/>
      <point x="266" y="302"/>
      <point x="204" y="302" type="curve" smooth="yes"/>
      <point x="94" y="302" type="line"/>
      <point x="94" y="281" type="line"/>
      <point x="204" y="281" type="line" smooth="yes"/>
      <point x="279" y="281"/>
      <point x="330" y="340"/>
      <point x="330" y="428" type="curve" smooth="yes"/>
      <point x="330" y="517"/>
      <point x="279" y="578"/>
      <point x="204" y="578" type="curve" smooth="yes"/>
      <point x="76" y="578" type="line"/>
      <point x="76" y="0" type="line"/>
    </contour>
    <contour>
      <point x="335" y="0" type="line"/>
      <point x="223" y="291" type="line"/>
      <point x="203" y="284" type="line"/>
      <point x="312" y="0" type="line"/>
    </contour>
    <contour>
      <point x="188" y="576" type="move" name="top"/>
    </contour>
    <contour>
      <point x="197" y="0" type="move" name="bottom"/>
    </contour>
  </outline>
</glyph>
<glyph name="u.sc" format="1">
  <advance width="404"/>
  <outline>
    <contour>
      <point x="281" y="-7"/>
      <point x="334" y="54"/>
      <point x="334" y="154" type="curve" smooth="yes"/>
      <point x="334" y="575" type="line"/>
      <point x="312" y="575" type="line"/>
      <point x="312" y="151" type="line" smooth="yes"/>
      <point x="312" y="66"/>
      <point x="268" y="14"/>
      <point x="201" y="14" type="curve" smooth="yes"/>
      <point x="136" y="14"/>
      <point x="92" y="66"/>
      <point x="92" y="151" type="curve" smooth="yes"/>
      <point x="92" y="575" type="line"/>
      <point x="70" y="575" type="line"/>
      <point x="70" y="154" type="line" smooth="yes"/>
      <point x="70" y="54"/>
      <point x="123" y="-7"/>
      <point x="201" y="-7" type="curve" smooth="yes"/>
    </contour>
    <contour>
      <point x="201" y="584" type="move" name="top"/>
    </contour>
    <contour>
      <point x="203" y="0" type="move" name="bottom"/>
    </contour>
  </outline>
</glyph>
<glyph name="v.sc" format="1">
  <advance width="350"/>
  <outline>
    <contour>
      <point x="187" y="0" type="line"/>
      <point x="314" y="576" type="line"/>
      <point x="292" y="576" type="line"/>
      <point x="176" y="41" type="line"/>
      <point x="59" y="576" type="line"/>
      <point x="36" y="576" type="line"/>
      <point x="164" y="0" type="line"/>
    </contour>
  </outline>
</glyph>
<glyph name="zero.dnom" format="1">
  <advance width="263"/>
  <outline>
    <contour>
      <point x="188" y="-8"/>
      <point x="226" y="33"/>
      <point x="226" y="93" type="curve" smooth="yes"/>
      <point x="226" y="323" type="line" smooth="yes"/>
      <point x="226" y="383"/>
      <point x="188" y="424"/>
      <point x="131" y="424" type="curve" smooth="yes"/>
      <point x="74" y="424"/>
      <point x="37" y="383"/>
      <point x="37" y="323" type="curve" smooth="yes"/>
      <point x="37" y="93" type="line" smooth="yes"/>
      <point x="37" y="33"/>
      <point x="74" y="-8"/>
      <point x="131" y="-8" type="curve" smooth="yes"/>
    </contour>
    <contour>
      <point x="88" y="13"/>
      <point x="59" y="44"/>
      <point x="59" y="92" type="curve" smooth="yes"/>
      <point x="59" y="324" type="line" smooth="yes"/>
      <point x="59" y="372"/>
      <point x="88" y="403"/>
      <point x="131" y="403" type="curve" smooth="yes"/>
      <point x="175" y="403"/>
      <point x="204" y="372"/>
      <point x="204" y="324" type="curve" smooth="yes"/>
      <point x="204" y="92" type="line" smooth="yes"/>
      <point x="204" y="44"/>
      <point x="175" y="13"/>
      <point x="131" y="13" type="curve" smooth="yes"/>
    </contour>
  </outline>
</glyph>
